# xmcd CD database file
# Copyright (C) 1993-1998 Ti Kan
#
# Track frame offsets:
#  150
#  12714
#  23305
#  33718
#  43176
#  57696
#  79375
#  94974
#  113372
#  133760
#  150795
#  168850
#  183630
#
# Disc length: 2654 seconds
#
# Revision: 1
# Processed by: cddbd v1.4b41PL1 Copyright (c) Steve Scherf et al.
# Submitted via: CDWizzard Release:4.35
#
DISCID=a50a5c0d
DTITLE=Bill Gaither/Ben Speer - Homecoming Praise
DYEAR=1900
DGENRE=
TTITLE0=Turn Your Radio On
TTITLE1=I Feel Like Travelling On
TTITLE2=Goodbye, World, Goodbye
TTITLE3=I've Been With Jesus
TTITLE4=One More Valley
TTITLE5=Beautiful Star of Bethlehem
TTITLE6=Sweet Beulah Land
TTITLE7=What A Lovely Name
TTITLE8=Jesus, the Light of the World
TTITLE9=Leave It There
TTITLE10=Gentle Shepherd
TTITLE11=Because He Lives
TTITLE12=I'll Fly Away
EXTD=
EXTT0=
EXTT1=
EXTT2=
EXTT3=
EXTT4=
EXTT5=
EXTT6=
EXTT7=
EXTT8=
EXTT9=
EXTT10=
EXTT11=
EXTT12=
PLAYORDER=
